<svg width="108" height="16" viewBox="0 0 108 16" fill="none" xmlns="http://www.w3.org/2000/svg">
<path d="M0.464844 0.683594H4.88867V11.4746H11.793V15H0.464844V0.683594ZM23.0133 12.6367H17.9742L17.2809 15H12.7594L18.1402 0.683594H22.9645L28.3453 15H23.7164L23.0133 12.6367ZM22.0855 9.54102L20.5035 4.39453L18.9312 9.54102H22.0855ZM30.1613 0.683594H42.0168V3.74023H34.5949V6.01562H41.4797V8.93555H34.5949V11.7578H42.2316V15H30.1613V0.683594ZM52.2215 9.81445V6.83594H59.0574V12.9395C57.7488 13.8314 56.59 14.4401 55.5809 14.7656C54.5783 15.0846 53.3868 15.2441 52.0066 15.2441C50.3074 15.2441 48.9207 14.9544 47.8465 14.375C46.7788 13.7956 45.9487 12.9329 45.3562 11.7871C44.7703 10.6413 44.4773 9.32617 44.4773 7.8418C44.4773 6.2793 44.7996 4.92188 45.4441 3.76953C46.0887 2.61068 47.0327 1.73177 48.2762 1.13281C49.2462 0.670573 50.5516 0.439453 52.1922 0.439453C53.7742 0.439453 54.9559 0.582682 55.7371 0.869141C56.5249 1.1556 57.1759 1.60156 57.6902 2.20703C58.2111 2.80599 58.6017 3.56771 58.8621 4.49219L54.5945 5.25391C54.4187 4.71354 54.1193 4.30013 53.6961 4.01367C53.2794 3.72721 52.7456 3.58398 52.0945 3.58398C51.1245 3.58398 50.3497 3.92253 49.7703 4.59961C49.1974 5.27018 48.9109 6.33464 48.9109 7.79297C48.9109 9.34245 49.2006 10.4492 49.7801 11.1133C50.366 11.7773 51.1798 12.1094 52.2215 12.1094C52.7163 12.1094 53.1883 12.0378 53.6375 11.8945C54.0867 11.7513 54.601 11.5072 55.1805 11.1621V9.81445H52.2215ZM70.893 12.6367H65.8539L65.1605 15H60.6391L66.0199 0.683594H70.8441L76.225 15H71.5961L70.893 12.6367ZM69.9652 9.54102L68.3832 4.39453L66.8109 9.54102H69.9652ZM77.0449 0.683594H90.4922V4.21875H85.9805V15H81.5566V4.21875H77.0449V0.683594ZM92.3473 7.85156C92.3473 5.51432 92.9983 3.69466 94.3004 2.39258C95.6025 1.09049 97.4156 0.439453 99.7398 0.439453C102.123 0.439453 103.959 1.08073 105.248 2.36328C106.537 3.63932 107.181 5.42969 107.181 7.73438C107.181 9.40755 106.898 10.7812 106.332 11.8555C105.772 12.9232 104.958 13.7565 103.89 14.3555C102.829 14.9479 101.504 15.2441 99.9156 15.2441C98.301 15.2441 96.9631 14.987 95.9019 14.4727C94.8473 13.9583 93.9911 13.1445 93.3336 12.0312C92.676 10.918 92.3473 9.52474 92.3473 7.85156ZM96.7711 7.87109C96.7711 9.31641 97.038 10.3548 97.5719 10.9863C98.1122 11.6178 98.8447 11.9336 99.7691 11.9336C100.72 11.9336 101.455 11.6243 101.976 11.0059C102.497 10.3874 102.757 9.27734 102.757 7.67578C102.757 6.32812 102.484 5.34505 101.937 4.72656C101.397 4.10156 100.661 3.78906 99.7301 3.78906C98.8381 3.78906 98.122 4.10482 97.5816 4.73633C97.0413 5.36784 96.7711 6.41276 96.7711 7.87109Z" fill="#212529"/>
</svg>
